<?xml version="1.0" encoding="utf-8"?>
<!-- Generator: Adobe Illustrator 26.0.1, SVG Export Plug-In . SVG Version: 6.00 Build 0)  -->
<svg version="1.0" id="Layer_1" xmlns="http://www.w3.org/2000/svg" xmlns:xlink="http://www.w3.org/1999/xlink" x="0px" y="0px"
	 viewBox="0 0 100 100" style="enable-background:new 0 0 100 100;" xml:space="preserve">
<style type="text/css">
	.st0{fill:#EAAB34;}
	.st1{fill:#EAAA32;}
	.st2{fill:#EAAB35;}
	.st3{fill:#EAAA33;}
	.st4{fill:#EBAB35;}
</style>
<g>
	<g>
		<path class="st0" d="M51.8,67.6c0-6.4,0-12.8,0-19.2c0-1.1-0.2-2.5,1.1-3.1c1.2-0.6,2.1,0.3,3.1,1c8.4,5.7,16.9,11.3,25.4,16.9
			c2.9,1.9,2.9,2.8,0.3,5C73,75.4,64.3,82.5,55.6,89.6c-0.7,0.6-1.6,1.1-2.5,0.6c-1.2-0.5-1.3-1.6-1.3-2.7
			C51.8,80.9,51.8,74.2,51.8,67.6z"/>
		<path class="st1" d="M48,67.6c0,6.6,0,13.3,0,19.9c0,1,0.3,2.1-0.9,2.6c-1.3,0.6-2.1-0.2-3.1-1c-7.3-6-14.7-12-22-18
			c-1.4-1.2-2.9-2.3-4.2-3.6C16,66,16,65,18,63.6c5.2-3.5,10.4-6.9,15.6-10.4c3.5-2.3,7-4.6,10.4-6.9c1-0.7,2-1.5,3.1-1
			c1.3,0.5,0.8,1.9,0.8,2.9C48,54.7,48,61.2,48,67.6z"/>
		<path class="st2" d="M48.3,23.7c-0.2,4.2,0.2,8.6-0.2,13c-0.1,1.3-0.6,2.1-1.7,2.8C37.3,45.6,28.2,51.8,19,58
			c-0.3,0.2-0.7,0.4-1,0.6c-0.5,0.3-1.1,0.7-1.6,0c-0.5-0.6-0.2-1.2,0.1-1.7c1.4-2.1,2.7-4.3,4.1-6.4c6.1-9.7,12.3-19.2,18.4-28.8
			c2.2-3.4,4.2-6.8,6.3-10.2c0.5-0.7,1-1.8,2.1-1.5c1.1,0.3,0.9,1.5,0.9,2.4C48.3,16,48.3,19.7,48.3,23.7z"/>
		<path class="st0" d="M83,59c-3.5-2.3-6.9-4.5-10.3-6.8c-6.3-4.3-12.6-8.6-18.9-12.9c-1.5-1-2.2-2.2-2.1-4c0-7.8,0-15.6,0-23.4
			c0-0.8-0.3-1.9,0.7-2.2c1.1-0.4,1.7,0.6,2.2,1.3c3,4.7,6.1,9.5,9,14.2c3.1,5,6.2,10.1,9.4,15.1c3.3,5.2,6.6,10.4,10,15.6
			C83.6,56.7,84,57.6,83,59z"/>
	</g>
</g>
</svg>
